<svg id="Layer_1" data-name="Layer 1" xmlns="http://www.w3.org/2000/svg" viewBox="0 0 1400 1000"><defs><style>.cls-1{fill:none;stroke:#484949;stroke-miterlimit:10;stroke-width:0.25px;}.cls-2{fill:#383838;}.cls-3{fill:#5c8fcb;}.cls-4{fill:#632d91;}.cls-5{fill:#5abe1b;}</style></defs><title>NW icon full colour0</title><line class="cls-1" x1="454.63" y1="486.89" x2="448.08" y2="510.85"/><line class="cls-2" x1="443.31" y1="528.22" x2="430.75" y2="574.11"/><line class="cls-1" x1="486.88" y1="490.05" x2="477.16" y2="525.53"/><line class="cls-2" x1="474.69" y1="534.6" x2="462.99" y2="577.29"/><path class="cls-3" d="M556.39,529.6C525.14,504.25,491,482.9,454.8,464.35q-11.66-6-23.56-11.57c-18.05-8.44-18.43-8.43-5.89-23.21,43.43-51,87.18-101.87,130.66-152.86,4.27-5.06,7.64-6.3,14.11-2.92a512.14,512.14,0,0,1,52.06,30.53c7.25,4.81,14.31,9.84,21.21,15.16,3.24,2.48,6.46,5,9.68,7.54q24,19.13,45.94,40.17c43.21,41.68,79.49,89.33,107.29,144.31C795.17,459,771,412.44,739.06,369.84a503.69,503.69,0,0,0-86.56-89.75,563.59,563.59,0,0,0-88.6-58.66c-15.14-8.19-15.1-8.37-26.49,4.67q-102.12,116-204.16,232c-8,9.06-8,9.06,4.08,12.28A647.62,647.62,0,0,1,483.1,528.77a624.3,624.3,0,0,1,73.95,47.84Z"/><path class="cls-4" d="M557.77,632.29c.08,7.29.19,14.59.27,21.88-27.2-7.59-55.06-12.32-83.33-15.15-48.24-4.85-96.51-3.58-144.75.76-12.45,1.14-12.41,1.11-8-11.16,13.66-38.46,27.49-76.84,40.68-115.47a37.41,37.41,0,0,1,2.43-5.78L395,517c-.51,2.17-1.38,4.87-2.49,8.33-6,18.49-11.74,37.11-18.11,55.48-2.54,7.43-2.38,10.62,7,10.38C445,589.37,503.56,604.05,557.77,632.29Z"/><line class="cls-2" x1="556.16" y1="371.88" x2="500.67" y2="439.24"/><line class="cls-2" x1="555.13" y1="423.38" x2="530.11" y2="453.76"/><path class="cls-5" d="M881.94,631.65c0-22.65,1.17-45.37-.26-67.93-2.28-35.64-3.57-71.7-10.27-106.62-8.25-43-35.68-74.22-73.61-95.93-9.25-5.29-18.69-10.25-28-15.31,32.9,0,65.86-3.6,97.73.75,65.79,9,106.78,53.83,108.94,120.46,3.11,95.58,2.57,191.28,3.53,286.93.14,13.79,0,27.59,0,42.39-60-1.33-111-19.27-147-63.06-45-54.75-84.77-113.73-126.71-171-12.37-16.87-24.42-34-38.13-53.07-2.27,5.13-3.77,6.9-3.71,8.61,1.63,48.77.68,97.84,5.86,146.24,6.7,62.57,43.23,105.29,100.49,130.52,2.33,1,4.62,2.14,7.59,3.53-34.5,8.78-107.1,3.25-137.35-10.78-50.44-23.4-70.25-67-71.54-118.74C567,566.33,567.4,463.9,566.2,361.49c-.13-11.15,4.06-15,14.73-13.92,63.68,6.65,115.48,34.67,153.56,86.41,33.46,45.48,66.26,91.45,99,137.43,14.56,20.42,28.33,41.4,42.46,62.12Z"/></svg>